<?xml version="1.0" encoding="UTF-8"?>
<svg xmlns="http://www.w3.org/2000/svg" xmlns:xlink="http://www.w3.org/1999/xlink" width="40pt" height="40pt" viewBox="0 0 40 40" version="1.1">
<g id="surface1">
<path style=" stroke:none;fill-rule:nonzero;fill:rgb(100%,100%,100%);fill-opacity:1;" d="M 36.878906 24.214844 C 36.992188 24.183594 37.003906 23.921875 37.027344 23.816406 C 37.109375 23.390625 37.210938 22.96875 37.261719 22.535156 C 37.414062 21.222656 37.523438 19.878906 37.394531 18.554688 C 37.351562 18.113281 37.265625 17.691406 37.203125 17.257812 C 36.695312 13.769531 35.050781 10.445312 32.597656 7.898438 C 31.792969 7.058594 30.878906 6.3125 29.9375 5.636719 C 29.636719 5.421875 29.308594 5.265625 29 5.066406 C 27.789062 4.292969 26.425781 3.679688 25.039062 3.285156 C 21.121094 2.171875 16.796875 2.296875 13.039062 3.976562 C 9.878906 5.386719 7.203125 7.683594 5.304688 10.574219 C 4.265625 12.160156 3.480469 13.949219 3.046875 15.796875 C 2.914062 16.363281 2.847656 16.929688 2.753906 17.496094 C 2.535156 18.808594 2.480469 20.167969 2.636719 21.496094 C 2.664062 21.753906 2.648438 22.015625 2.683594 22.277344 C 2.839844 23.449219 3.097656 24.621094 3.492188 25.738281 C 4.777344 29.359375 7.257812 32.570312 10.5 34.664062 C 13.511719 36.605469 16.996094 37.5 20.558594 37.4375 C 21.085938 37.425781 21.617188 37.332031 22.136719 37.277344 C 27.332031 36.722656 32.003906 33.664062 34.800781 29.257812 C 35.496094 28.15625 36.0625 26.96875 36.476562 25.738281 C 36.640625 25.253906 36.878906 24.730469 36.878906 24.214844 Z M 36.878906 24.214844 "/>
<path style=" stroke:none;fill-rule:nonzero;fill:rgb(0.392157%,0.392157%,0.392157%);fill-opacity:1;" d="M 13.257812 34.4375 C 13.261719 33.902344 13.355469 33.390625 13.378906 32.855469 C 13.417969 31.90625 13.429688 30.941406 13.5625 29.996094 C 13.632812 29.480469 13.6875 28.9375 13.699219 28.417969 C 13.703125 28.273438 13.773438 28.058594 13.726562 27.921875 C 13.6875 27.796875 13.472656 27.683594 13.378906 27.59375 C 13.074219 27.320312 12.761719 27.050781 12.457031 26.773438 C 11.9375 26.300781 11.335938 25.773438 10.960938 25.171875 C 10.8125 24.933594 10.765625 24.621094 10.6875 24.355469 C 10.628906 24.164062 10.527344 23.976562 10.5 23.777344 L 10.4375 23.777344 C 10.429688 23.507812 10.300781 23.269531 10.234375 23.015625 C 10.070312 22.410156 9.878906 21.773438 9.761719 21.15625 C 9.664062 20.625 9.601562 20.035156 9.640625 19.496094 C 9.652344 19.292969 9.722656 19.097656 9.738281 18.898438 C 9.871094 18.925781 9.933594 19.019531 10.039062 19.09375 C 10.25 19.25 10.449219 19.421875 10.65625 19.585938 C 11.390625 20.144531 12.097656 20.738281 12.839844 21.292969 C 13.027344 21.433594 13.210938 21.585938 13.398438 21.730469 C 13.46875 21.789062 13.566406 21.898438 13.65625 21.914062 C 13.742188 21.929688 13.835938 21.828125 13.898438 21.785156 L 14.476562 21.398438 C 15.21875 20.898438 15.96875 20.316406 16.777344 19.925781 C 16.957031 19.835938 17.203125 19.832031 17.398438 19.8125 C 17.71875 19.78125 18.039062 19.734375 18.359375 19.691406 C 18.9375 19.621094 19.519531 19.503906 20.097656 19.4375 C 20.621094 19.378906 21.160156 19.371094 21.679688 19.277344 L 21.679688 19.296875 C 21.421875 19.371094 21.179688 19.574219 20.957031 19.71875 C 20.511719 20.015625 20.066406 20.324219 19.675781 20.691406 C 18.386719 21.902344 17.144531 23.128906 16.542969 24.835938 C 16.335938 25.425781 16.199219 26.050781 16.199219 26.675781 C 16.199219 26.804688 16.136719 27.164062 16.230469 27.261719 C 16.316406 27.351562 16.542969 27.386719 16.65625 27.421875 C 17.027344 27.53125 17.453125 27.558594 17.839844 27.515625 C 18.03125 27.492188 18.203125 27.4375 18.398438 27.4375 L 17.667969 31.015625 L 17.246094 32.875 L 17.019531 33.957031 L 17.222656 33.496094 L 17.699219 32.175781 L 19.171875 28.355469 L 19.640625 27.117188 L 19.777344 26.738281 C 19.191406 26.65625 18.589844 26.535156 18 26.515625 C 17.832031 26.511719 17.390625 26.46875 17.296875 26.3125 C 17.1875 26.117188 17.359375 25.710938 17.359375 25.496094 L 17.417969 25.496094 C 17.515625 24.835938 17.875 24.179688 18.210938 23.617188 C 19.140625 22.042969 20.574219 20.804688 22.078125 19.796875 C 22.695312 19.382812 23.355469 18.925781 24.058594 18.671875 C 24.507812 18.511719 25.011719 18.4375 25.476562 18.351562 C 25.703125 18.308594 25.925781 18.226562 26.15625 18.199219 C 26.527344 18.15625 26.914062 18.167969 27.277344 18.078125 L 27.277344 18.054688 C 26.898438 18.019531 26.496094 17.980469 26.117188 17.90625 C 25.984375 17.878906 25.820312 17.875 25.699219 17.808594 C 25.492188 17.699219 25.257812 17.355469 25.242188 17.117188 C 25.234375 16.9375 25.347656 16.738281 25.410156 16.578125 C 25.570312 16.148438 25.8125 15.734375 25.9375 15.296875 C 25.726562 15.394531 25.570312 15.636719 25.398438 15.792969 C 24.933594 16.214844 24.402344 16.683594 23.777344 16.839844 C 23.585938 16.890625 23.386719 16.839844 23.199219 16.820312 C 22.832031 16.78125 22.460938 16.703125 22.097656 16.628906 C 21.957031 16.601562 21.824219 16.53125 21.679688 16.515625 L 21.679688 16.457031 C 21.214844 16.375 20.71875 16.113281 20.296875 15.902344 C 20.183594 15.84375 19.925781 15.78125 19.859375 15.671875 C 19.804688 15.585938 19.808594 15.453125 19.789062 15.355469 C 19.734375 15.089844 19.714844 14.824219 19.660156 14.554688 C 19.613281 14.300781 19.597656 14.039062 19.597656 13.777344 C 19.597656 13.671875 19.578125 13.542969 19.664062 13.460938 C 19.785156 13.347656 20.058594 13.3125 20.21875 13.265625 C 20.714844 13.117188 21.214844 12.976562 21.71875 12.847656 C 23.109375 12.484375 24.492188 12.0625 25.878906 11.667969 C 26.285156 11.550781 26.691406 11.433594 27.097656 11.324219 C 27.308594 11.269531 27.535156 11.191406 27.757812 11.222656 C 28.117188 11.269531 28.554688 11.359375 28.8125 11.636719 C 29.019531 11.859375 29.085938 12.332031 29.183594 12.617188 C 29.425781 13.347656 29.699219 14.070312 29.949219 14.796875 C 30.382812 16.054688 30.824219 17.300781 31.195312 18.578125 C 31.273438 18.835938 31.332031 19.125 31.433594 19.375 C 31.507812 19.558594 31.648438 19.808594 31.585938 20.015625 C 31.53125 20.214844 31.28125 20.414062 31.136719 20.554688 C 30.78125 20.914062 30.433594 21.28125 30.078125 21.636719 C 29.171875 22.542969 28.246094 23.421875 27.332031 24.316406 C 27.03125 24.609375 26.765625 24.941406 26.453125 25.226562 C 26.097656 25.546875 25.78125 25.917969 25.417969 26.234375 C 25.25 26.375 25.109375 26.519531 24.957031 26.675781 C 24.882812 26.753906 24.769531 26.832031 24.730469 26.9375 C 24.65625 27.136719 24.789062 27.378906 24.796875 27.578125 C 24.824219 28.1875 24.875 28.796875 24.972656 29.398438 C 25.011719 29.636719 25 29.890625 25.019531 30.136719 C 25.078125 30.730469 25.171875 31.320312 25.234375 31.917969 C 25.269531 32.246094 25.261719 32.585938 25.300781 32.914062 C 25.347656 33.320312 25.371094 33.730469 25.421875 34.136719 C 25.453125 34.402344 25.519531 34.648438 25.519531 34.917969 C 25.957031 34.835938 26.375 34.613281 26.777344 34.425781 C 27.730469 33.988281 28.585938 33.433594 29.429688 32.820312 C 33.882812 29.59375 36.347656 24.113281 35.839844 18.65625 C 35.761719 17.816406 35.683594 17.003906 35.484375 16.175781 C 34.195312 10.890625 30.136719 6.5625 24.976562 4.84375 C 23.152344 4.234375 21.160156 3.992188 19.238281 4.078125 C 13.332031 4.335938 7.722656 8.089844 5.382812 13.578125 C 4.839844 14.851562 4.445312 16.210938 4.222656 17.578125 C 4.046875 18.671875 4.070312 19.792969 4.117188 20.898438 C 4.300781 25.101562 6.242188 29.167969 9.429688 31.929688 C 10.339844 32.71875 11.316406 33.507812 12.417969 34.023438 C 12.6875 34.152344 12.953125 34.382812 13.257812 34.4375 Z M 13.257812 34.4375 "/>
<path style=" stroke:none;fill-rule:nonzero;fill:rgb(100%,100%,100%);fill-opacity:1;" d="M 27 10.796875 C 26.96875 10.484375 26.730469 10.121094 26.601562 9.835938 C 26.292969 9.140625 26.019531 8.425781 25.664062 7.757812 C 25.554688 7.550781 25.445312 7.339844 25.347656 7.125 C 25.304688 7.035156 25.292969 6.914062 25.191406 6.867188 C 24.996094 6.785156 24.683594 6.953125 24.496094 7.007812 C 23.964844 7.167969 23.414062 7.3125 22.878906 7.46875 C 22.378906 7.613281 21.921875 7.785156 21.4375 7.96875 C 21.285156 8.027344 20.964844 8.097656 20.878906 8.242188 C 20.800781 8.371094 20.9375 8.597656 20.992188 8.714844 C 21.171875 9.117188 21.398438 9.5 21.582031 9.898438 C 21.796875 10.359375 22.113281 10.78125 22.300781 11.257812 C 22.371094 11.425781 22.453125 11.578125 22.539062 11.738281 C 22.570312 11.796875 22.605469 11.902344 22.664062 11.933594 C 22.75 11.980469 22.933594 11.894531 23.019531 11.871094 C 23.320312 11.785156 23.625 11.722656 23.917969 11.617188 C 24.339844 11.464844 24.800781 11.402344 25.238281 11.289062 C 25.828125 11.132812 26.414062 10.945312 27 10.796875 Z M 27 10.796875 "/>
<path style=" stroke:none;fill-rule:nonzero;fill:rgb(100%,100%,100%);fill-opacity:1;" d="M 18.957031 15.136719 L 18.976562 15.136719 C 18.957031 14.675781 18.859375 14.21875 18.859375 13.757812 C 18.859375 13.585938 18.835938 13.371094 18.921875 13.214844 C 19.042969 12.996094 19.457031 12.929688 19.679688 12.859375 C 20.386719 12.640625 21.128906 12.339844 21.859375 12.214844 L 21.917969 12.15625 C 21.773438 11.757812 21.527344 11.378906 21.339844 10.996094 C 21.109375 10.519531 20.910156 10.019531 20.683594 9.535156 C 20.582031 9.316406 20.480469 9.09375 20.371094 8.875 C 20.328125 8.792969 20.28125 8.664062 20.195312 8.617188 C 20.117188 8.574219 19.984375 8.597656 19.898438 8.597656 C 19.605469 8.597656 19.328125 8.648438 19.054688 8.742188 C 18.253906 9.023438 17.515625 9.296875 16.816406 9.808594 C 16.617188 9.957031 16.40625 10.089844 16.21875 10.257812 C 16.152344 10.316406 16.039062 10.382812 16.03125 10.476562 C 16.015625 10.621094 16.128906 10.816406 16.199219 10.9375 C 16.371094 11.242188 16.550781 11.542969 16.746094 11.835938 C 17.476562 12.9375 18.226562 14.03125 18.957031 15.136719 Z M 18.957031 15.136719 "/>
<path style=" stroke:none;fill-rule:nonzero;fill:rgb(100%,100%,100%);fill-opacity:1;" d="M 20.136719 18.675781 C 20.089844 18.457031 19.933594 18.320312 19.835938 18.136719 C 19.605469 17.695312 19.367188 17.261719 19.113281 16.832031 C 18.308594 15.46875 17.507812 14.109375 16.652344 12.777344 C 16.367188 12.332031 16.078125 11.894531 15.785156 11.457031 C 15.683594 11.300781 15.542969 11.003906 15.378906 10.917969 C 15.109375 10.777344 14.683594 11.046875 14.4375 11.136719 C 13.726562 11.394531 13.078125 11.859375 12.53125 12.378906 C 12.324219 12.574219 12.078125 12.8125 11.957031 13.078125 C 11.835938 13.34375 11.953125 13.460938 12.0625 13.699219 C 12.21875 14.035156 12.417969 14.339844 12.613281 14.65625 C 13.359375 15.859375 14.296875 16.910156 15.132812 18.035156 C 15.378906 18.367188 15.625 18.707031 15.9375 18.980469 C 16.027344 19.058594 16.125 19.21875 16.238281 19.25 C 16.578125 19.339844 16.988281 19.207031 17.316406 19.160156 C 17.964844 19.070312 18.609375 18.980469 19.257812 18.863281 C 19.550781 18.8125 19.84375 18.703125 20.136719 18.675781 Z M 20.136719 18.675781 "/>
<path style=" stroke:none;fill-rule:nonzero;fill:rgb(100%,100%,100%);fill-opacity:1;" d="M 11.117188 14.105469 C 10.683594 14.199219 10.304688 14.546875 9.976562 14.828125 C 9.613281 15.140625 9.300781 15.492188 9.015625 15.875 C 8.84375 16.101562 8.683594 16.339844 8.699219 16.636719 C 8.71875 17.007812 9.179688 17.335938 9.417969 17.578125 C 10.128906 18.289062 10.871094 18.929688 11.636719 19.582031 C 12.125 20 12.613281 20.40625 13.117188 20.800781 C 13.316406 20.953125 13.527344 21.1875 13.796875 21.125 C 14.335938 21.003906 14.886719 20.5625 15.300781 20.214844 C 15.421875 20.109375 15.683594 19.917969 15.671875 19.738281 C 15.664062 19.613281 15.578125 19.550781 15.515625 19.457031 C 15.347656 19.203125 15.148438 18.976562 14.96875 18.734375 C 14.273438 17.800781 13.597656 16.851562 12.894531 15.917969 C 12.542969 15.445312 12.191406 14.980469 11.832031 14.515625 C 11.632812 14.261719 11.46875 14.03125 11.117188 14.105469 Z M 11.117188 14.105469 "/>
</g>
</svg>
